# Wavefront OBJ exported by MilkShape 3D

mtllib tree4.mtl

v -0.097656 4.270024 1.684215
v 2.264557 4.273520 -0.810625
v 0.438689 37.530716 0.438924
v -0.664366 -4.593263 3.769649
v 2.264557 4.273520 -0.810625
v -0.097656 4.270024 1.684215
v -0.664366 -4.593263 3.769649
v 3.769792 -4.593302 -0.661471
v 2.264557 4.273520 -0.810625
v 3.769792 -4.593302 -0.661471
v -0.094236 4.400639 -3.305465
v 2.264557 4.273520 -0.810625
v 2.264557 4.273520 -0.810625
v -0.094236 4.400639 -3.305465
v 0.438689 37.530716 0.438924
v 3.769792 -4.593302 -0.661471
v -0.658292 -4.361276 -5.092590
v -0.094236 4.400639 -3.305465
v -0.094236 4.400639 -3.305465
v -2.456449 4.397143 -0.810625
v 0.438689 37.530716 0.438924
v -0.658292 -4.361276 -5.092590
v -2.456449 4.397143 -0.810625
v -0.094236 4.400639 -3.305465
v -0.658292 -4.361276 -5.092590
v -5.092450 -4.361236 -0.661470
v -2.456449 4.397143 -0.810625
v -5.092450 -4.361236 -0.661470
v -0.097656 4.270024 1.684215
v -2.456449 4.397143 -0.810625
v -2.456449 4.397143 -0.810625
v -0.097656 4.270024 1.684215
v 0.438689 37.530716 0.438924
v -5.092450 -4.361236 -0.661470
v -0.664366 -4.593263 3.769649
v -0.097656 4.270024 1.684215
v 1.952579 29.452868 0.684822
v 2.480776 29.669874 -0.871685
v 0.381358 35.341412 0.381573
v -0.245694 28.925232 2.744826
v 1.400570 28.867472 3.304125
v 0.381358 35.341412 0.381573
v -0.310946 29.062233 -1.507019
v -1.963489 29.120213 -2.068503
v 0.381358 35.341412 0.381573
v 1.952579 29.452868 0.684822
v -0.310946 29.062233 -1.507019
v 0.381358 35.341412 0.381573
v -0.245694 28.925232 2.744826
v 1.952579 29.452868 0.684822
v 0.381358 35.341412 0.381573
v -2.489488 29.567221 0.580820
v -0.245694 28.925232 2.744826
v 0.381358 35.341412 0.381573
v -1.907132 28.954481 3.289038
v -0.245694 28.925232 2.744826
v 0.381358 35.341412 0.381573
v -3.118417 29.820478 -1.023782
v -2.489488 29.567221 0.580820
v 0.381358 35.341412 0.381573
v 2.592597 29.583958 2.296516
v 1.952579 29.452868 0.684822
v 0.381358 35.341412 0.381573
v 1.344213 29.033203 -2.053417
v -0.310946 29.062233 -1.507019
v 0.381358 35.341412 0.381573
v -0.310946 29.062233 -1.507019
v -2.489488 29.567221 0.580820
v 0.381358 35.341412 0.381573
v -2.489488 29.567221 0.580820
v -3.006596 29.734562 2.144418
v 0.381358 35.341412 0.381573
v 3.505809 23.469616 -3.636555
v 2.116500 22.774366 -6.411974
v 0.574937 30.675533 -2.626818
v 0.257417 30.608297 0.257590
v 3.505809 23.469616 -3.636555
v 0.574937 30.675533 -2.626818
v 3.419336 21.253078 1.893753
v 3.505809 23.469616 -3.636555
v 0.257417 30.608297 0.257590
v 3.419336 21.253078 1.893753
v 0.257417 30.608297 0.257590
v 0.570983 30.524523 3.141998
v 2.075629 21.213552 4.745997
v 3.419336 21.253078 1.893753
v 0.570983 30.524523 3.141998
v 3.419336 21.253078 1.893753
v 6.192267 21.216267 0.527110
v 3.154486 30.524200 0.571730
v 0.257417 30.608297 0.257590
v 3.419336 21.253078 1.893753
v 3.154486 30.524200 0.571730
v -2.130358 23.480263 1.917374
v 3.419336 21.253078 1.893753
v 0.257417 30.608297 0.257590
v -2.130358 23.480263 1.917374
v 0.257417 30.608297 0.257590
v -2.640083 30.675938 0.571730
v -5.015676 22.778492 0.560322
v -2.130358 23.480263 1.917374
v -2.640083 30.675938 0.571730
v -2.161741 21.502542 -3.712383
v -4.924068 21.539209 -2.350863
v -2.639653 30.692383 -0.056550
v 0.257417 30.608297 0.257590
v -2.161741 21.502542 -3.712383
v -2.639653 30.692383 -0.056550
v 3.505809 23.469616 -3.636555
v -2.161741 21.502542 -3.712383
v 0.257417 30.608297 0.257590
v 3.505809 23.469616 -3.636555
v 0.257417 30.608297 0.257590
v 3.154917 30.540646 -0.056551
v 6.351413 22.556192 -2.316512
v 3.505809 23.469616 -3.636555
v 3.154917 30.540646 -0.056551
v -2.130358 23.480263 1.917374
v -0.780762 22.560316 4.655784
v -0.060103 30.541050 3.141998
v 0.257417 30.608297 0.257590
v -2.130358 23.480263 1.917374
v -0.060103 30.541050 3.141998
v -2.161741 21.502542 -3.712383
v -2.130358 23.480263 1.917374
v 0.257417 30.608297 0.257590
v -2.161741 21.502542 -3.712383
v 0.257417 30.608297 0.257590
v -0.056149 30.692060 -2.626818
v -0.807431 21.541925 -6.569749
v -2.161741 21.502542 -3.712383
v -0.056149 30.692060 -2.626818
v -1.313942 11.813568 -5.484956
v -5.706317 11.967679 -6.977352
v -2.680272 24.849152 -3.187067
v 0.102444 24.690115 0.102564
v -1.313942 11.813568 -5.484956
v -2.680272 24.849152 -3.187067
v 4.759005 15.013913 0.397480
v -1.313942 11.813568 -5.484956
v 0.102444 24.690115 0.102564
v 4.759005 15.013913 0.397480
v 0.102444 24.690115 0.102564
v 3.537105 24.530338 2.768520
v 6.434583 14.386470 4.655715
v 4.759005 15.013913 0.397480
v 3.537105 24.530338 2.768520
v -7.060997 14.813121 0.107826
v -8.447783 14.786769 4.251450
v -3.229173 24.710846 2.641516
v 0.102444 24.690115 0.102564
v -7.060997 14.813121 0.107826
v -3.229173 24.710846 2.641516
v -1.313942 11.813568 -5.484956
v -7.060997 14.813121 0.107826
v 0.102444 24.690115 0.102564
v -1.313942 11.813568 -5.484956
v 0.102444 24.690115 0.102564
v 2.756927 24.704100 -3.085011
v 3.085386 11.736410 -6.937255
v -1.313942 11.813568 -5.484956
v 2.756927 24.704100 -3.085011
v -1.134246 11.688590 5.822495
v 3.241438 11.535068 7.309081
v 2.885160 24.531075 3.392195
v 0.102444 24.690115 0.102564
v -1.134246 11.688590 5.822495
v 2.885160 24.531075 3.392195
v -7.060997 14.813121 0.107826
v -1.134246 11.688590 5.822495
v 0.102444 24.690115 0.102564
v -7.060997 14.813121 0.107826
v 0.102444 24.690115 0.102564
v -3.332217 24.849888 -2.563392
v -8.744995 15.015137 -4.169466
v -7.060997 14.813121 0.107826
v -3.332217 24.849888 -2.563392
v 4.759005 15.013913 0.397480
v 6.137372 14.614838 -3.765201
v 3.434061 24.669380 -2.436389
v 0.102444 24.690115 0.102564
v 4.759005 15.013913 0.397480
v 3.434061 24.669380 -2.436389
v -1.134246 11.688590 5.822495
v 4.759005 15.013913 0.397480
v 0.102444 24.690115 0.102564
v -1.134246 11.688590 5.822495
v 0.102444 24.690115 0.102564
v -2.552040 24.676125 3.290138
v -5.550265 11.766336 7.268984
v -1.134246 11.688590 5.822495
v -2.552040 24.676125 3.290138
v 5.889021 4.826476 3.944328
v 11.298599 4.754660 1.278209
v 5.571330 17.542673 0.532476
v -0.080423 17.706722 -0.080365
v 5.889021 4.826476 3.944328
v 5.571330 17.542673 0.532476
v -4.978476 7.610680 3.949526
v 5.889021 4.826476 3.944328
v -0.080423 17.706722 -0.080365
v -4.978476 7.610680 3.949526
v -0.080423 17.706722 -0.080365
v -5.733016 17.838688 0.532476
v -10.651293 4.561672 1.258113
v -4.978476 7.610680 3.949526
v -5.733016 17.838688 0.532476
v 6.000706 6.973459 -6.901515
v 3.262524 4.553627 -12.343807
v 0.539011 17.837902 -5.707419
v -0.080423 17.706722 -0.080365
v 6.000706 6.973459 -6.901515
v 0.539011 17.837902 -5.707419
v 5.889021 4.826476 3.944328
v 6.000706 6.973459 -6.901515
v -0.080423 17.706722 -0.080365
v 5.889021 4.826476 3.944328
v -0.080423 17.706722 -0.080365
v 0.531297 17.543304 5.546688
v 3.267650 4.749362 9.508634
v 5.889021 4.826476 3.944328
v 0.531297 17.543304 5.546688
v -4.980942 5.996253 -6.974520
v -10.369830 6.067788 -4.318395
v -5.732175 17.870771 -0.693207
v -0.080423 17.706722 -0.080365
v -4.980942 5.996253 -6.974520
v -5.732175 17.870771 -0.693207
v 6.000706 6.973459 -6.901515
v -4.980942 5.996253 -6.974520
v -0.080423 17.706722 -0.080365
v 6.000706 6.973459 -6.901515
v -0.080423 17.706722 -0.080365
v 5.572169 17.574759 -0.693207
v 11.524211 4.127999 -4.354166
v 6.000706 6.973459 -6.901515
v 5.572169 17.574759 -0.693207
v -4.978476 7.610680 3.949526
v -2.389606 4.136045 9.247754
v -0.699857 17.575542 5.546688
v -0.080423 17.706722 -0.080365
v -4.978476 7.610680 3.949526
v -0.699857 17.575542 5.546688
v -4.980942 5.996253 -6.974520
v -4.978476 7.610680 3.949526
v -0.080423 17.706722 -0.080365
v -4.980942 5.996253 -6.974520
v -0.080423 17.706722 -0.080365
v -0.692143 17.870142 -5.707419
v -2.338884 6.073085 -12.548819
v -4.980942 5.996253 -6.974520
v -0.692143 17.870142 -5.707419
# 252 vertices

vt 0.007813 0.277344
vt 0.246094 0.277344
vt 0.125000 0.996094
vt 0.007813 0.007813
vt 0.246094 0.007813
vt 0.492188 0.277344
vt 0.371094 0.996094
vt 0.492188 0.007813
vt 0.745098 0.023622
vt 0.992157 0.023622
vt 0.992157 0.598425
vt 0.250980 0.023622
vt 0.498039 0.598425
vt 0.003922 0.023622
vt 0.003922 0.598425
vt 0.992157 0.992126
vt 0.498039 0.992126
vt 0.003922 0.992126
# 18 texture coordinates

vn -0.113991 0.097411 0.988695
vn 0.943528 0.112999 0.311425
vn 0.022159 0.998918 0.040885
vn 0.203727 0.120860 0.971539
vn 0.870693 0.140998 -0.471183
vn 0.122249 0.097994 -0.987650
vn -0.195484 0.137145 -0.971070
vn -0.932574 0.192870 -0.305135
vn -0.846721 0.253117 0.467969
vn 0.619006 0.785376 -0.003898
vn 0.573528 0.792186 0.208582
vn 0.042008 0.999071 -0.009606
vn 0.028304 0.885821 0.463163
vn -0.139204 0.891933 0.430206
vn 0.024024 0.822724 -0.567934
vn 0.224458 0.773870 -0.592237
vn -0.405229 0.914214 0.001699
vn 0.190745 0.855000 0.482278
vn -0.381335 0.909519 0.165405
vn 0.635252 0.739429 -0.222932
vn -0.191377 0.835657 -0.514833
vn -0.417320 0.896776 -0.147095
vn 0.248121 0.943712 -0.218733
vn 0.378911 0.897672 -0.224972
vn 0.423262 0.901994 -0.085184
vn -0.014603 0.998634 0.050177
vn 0.378722 0.822765 0.423824
vn 0.570540 0.813868 0.110011
vn 0.595566 0.751869 0.282831
vn 0.355941 0.609459 0.708425
vn 0.142991 0.616036 0.774631
vn -0.392557 0.815842 0.424618
vn -0.135214 0.660747 0.738329
vn -0.371554 0.564011 0.737455
vn -0.348298 0.887513 -0.301679
vn -0.237233 0.840440 -0.487217
vn -0.082888 0.874102 -0.478617
vn 0.098649 0.924295 -0.368710
vn 0.231470 0.909446 -0.345442
vn -0.679689 0.625834 0.382564
vn -0.639228 0.754690 0.147752
vn -0.661728 0.742912 -0.100984
vn -0.592164 0.758011 -0.273425
vn 0.028357 0.792574 -0.609115
vn 0.281465 0.591369 -0.755685
vn 0.484852 0.599797 -0.636523
vn 0.042135 0.999112 -0.000437
vn 0.616874 0.787058 -0.002467
vn 0.629170 0.670234 -0.393613
vn 0.769466 0.594459 -0.233540
vn -0.430625 0.902520 0.004509
vn -0.531542 0.830956 -0.164243
vn -0.449262 0.843471 -0.294484
vn -0.393524 0.749824 -0.531886
vn -0.252630 0.694608 -0.673570
vn 0.032114 0.815975 0.577194
vn -0.216511 0.733287 0.644525
vn -0.357177 0.778831 0.515604
vn -0.421706 0.854681 0.302795
vn -0.507621 0.840307 0.190273
vn 0.752397 0.618980 0.225306
vn 0.595004 0.711514 0.373789
vn 0.461697 0.648733 0.604965
vn 0.275299 0.652659 0.705866
vn 0.355673 0.851189 0.385972
vn 0.325414 0.691714 0.644700
vn 0.131183 0.711713 0.690112
vn -0.002382 0.999118 0.041918
vn -0.352361 0.852243 0.386684
vn -0.151718 0.750478 0.643246
vn -0.395153 0.664795 0.633957
vn 0.283111 0.925678 -0.250934
vn 0.412666 0.859161 -0.302572
vn 0.459135 0.880227 -0.119980
vn 0.561358 0.820296 0.109507
vn 0.573523 0.772204 0.273446
vn -0.322882 0.901683 -0.287601
vn -0.233768 0.844448 -0.481934
vn -0.081711 0.875483 -0.476290
vn 0.136437 0.898882 -0.416409
vn 0.313080 0.867974 -0.385489
vn -0.600140 0.679547 0.421958
vn -0.585644 0.791667 0.174027
vn -0.603273 0.792334 -0.090936
vn -0.556755 0.790312 -0.255795
# 85 normals

g Geoset_0
usemtl Material_0
s 1
f 1/1/1 2/2/2 3/3/3
f 4/4/4 5/2/2 6/1/1
f 7/4/4 8/5/5 9/2/2
f 10/5/5 11/6/6 12/2/2
f 13/2/2 14/6/6 15/7/3
f 16/5/5 17/8/7 18/6/6
f 19/1/6 20/2/8 21/3/3
f 22/4/7 23/2/8 24/1/6
f 25/4/7 26/5/9 27/2/8
f 28/5/9 29/6/1 30/2/8
f 31/2/8 32/6/1 33/7/3
f 34/5/9 35/8/4 36/6/1
# 12 triangles in group

g Geoset_1
usemtl Material_1
f 37/9/10 38/10/11 39/11/12
f 40/9/13 41/10/14 42/11/12
f 43/9/15 44/10/16 45/11/12
f 46/12/10 47/9/15 48/13/12
f 49/12/13 50/9/10 51/13/12
f 52/12/17 53/9/13 54/13/12
f 55/14/18 56/12/13 57/15/12
f 58/14/19 59/12/17 60/15/12
f 61/14/20 62/12/10 63/15/12
f 64/14/21 65/12/15 66/15/12
f 67/12/15 68/9/17 69/13/12
f 70/9/17 71/10/22 72/11/12
f 73/9/23 74/10/24 75/16/25
f 76/17/26 77/9/23 78/16/25
f 79/12/27 80/9/23 81/17/26
f 82/12/27 83/17/26 84/18/28
f 85/14/29 86/12/27 87/18/28
f 88/9/27 89/10/30 90/16/31
f 91/17/26 92/9/27 93/16/31
f 94/12/32 95/9/27 96/17/26
f 97/12/32 98/17/26 99/18/33
f 100/14/34 101/12/32 102/18/33
f 103/9/35 104/10/36 105/16/37
f 106/17/26 107/9/35 108/16/37
f 109/12/23 110/9/35 111/17/26
f 112/12/23 113/17/26 114/18/38
f 115/14/39 116/12/23 117/18/38
f 118/9/32 119/10/40 120/16/41
f 121/17/26 122/9/32 123/16/41
f 124/12/35 125/9/32 126/17/26
f 127/12/35 128/17/26 129/18/42
f 130/14/43 131/12/35 132/18/42
f 133/9/44 134/10/45 135/16/46
f 136/17/47 137/9/44 138/16/46
f 139/12/48 140/9/44 141/17/47
f 142/12/48 143/17/47 144/18/49
f 145/14/50 146/12/48 147/18/49
f 148/9/51 149/10/52 150/16/53
f 151/17/47 152/9/51 153/16/53
f 154/12/44 155/9/51 156/17/47
f 157/12/44 158/17/47 159/18/54
f 160/14/55 161/12/44 162/18/54
f 163/9/56 164/10/57 165/16/58
f 166/17/47 167/9/56 168/16/58
f 169/12/51 170/9/56 171/17/47
f 172/12/51 173/17/47 174/18/59
f 175/14/60 176/12/51 177/18/59
f 178/9/48 179/10/61 180/16/62
f 181/17/47 182/9/48 183/16/62
f 184/12/56 185/9/48 186/17/47
f 187/12/56 188/17/47 189/18/63
f 190/14/64 191/12/56 192/18/63
f 193/9/65 194/10/66 195/16/67
f 196/17/68 197/9/65 198/16/67
f 199/12/69 200/9/65 201/17/68
f 202/12/69 203/17/68 204/18/70
f 205/14/71 206/12/69 207/18/70
f 208/9/72 209/10/73 210/16/74
f 211/17/68 212/9/72 213/16/74
f 214/12/65 215/9/72 216/17/68
f 217/12/65 218/17/68 219/18/75
f 220/14/76 221/12/65 222/18/75
f 223/9/77 224/10/78 225/16/79
f 226/17/68 227/9/77 228/16/79
f 229/12/72 230/9/77 231/17/68
f 232/12/72 233/17/68 234/18/80
f 235/14/81 236/12/72 237/18/80
f 238/9/69 239/10/82 240/16/83
f 241/17/68 242/9/69 243/16/83
f 244/12/77 245/9/69 246/17/68
f 247/12/77 248/17/68 249/18/84
f 250/14/85 251/12/77 252/18/84
# 72 triangles in group

# 84 triangles total

